<svg width="32" height="33" viewBox="0 0 32 33" fill="none" xmlns="http://www.w3.org/2000/svg">
<path d="M25.1489 33H7.19843C5.5086 33 4.13425 31.6473 4.13425 29.9852L1.59167 18.2359C0.630961 17.7671 0 16.8108 0 15.743C0 14.1825 1.28961 12.9143 2.874 12.9143H29.126C30.7104 12.9143 32 14.1825 32 15.743C32 16.6561 31.5522 17.4921 30.8035 18.0185L28.1921 30.1763C28.2131 31.6473 26.8388 33 25.1489 33ZM2.874 14.7694C2.32918 14.7694 1.88505 15.2065 1.88505 15.7428C1.88505 16.1656 2.1955 16.54 2.64103 16.6512C2.98839 16.7382 3.25465 17.0134 3.32821 17.3589L5.99832 29.7945C6.0193 30.6252 6.54817 31.1447 7.19843 31.1447H25.1489C25.7992 31.1447 26.3283 30.6252 26.3283 29.9852L29.0441 17.243C29.1031 16.9628 29.2907 16.726 29.5497 16.6005C29.8982 16.434 30.1155 16.1028 30.1155 15.743C30.1155 15.2068 29.6714 14.7697 29.1263 14.7697H2.874V14.7694Z" fill="#198D9B"/>
<path d="M9.61899 27.5609C9.61899 27.9199 9.32057 28.2136 8.95586 28.2136H8.77323C8.40853 28.2136 8.11011 27.9199 8.11011 27.5609V19.9212C8.11011 19.5623 8.40853 19.2686 8.77323 19.2686H8.95586C9.32057 19.2686 9.61899 19.5623 9.61899 19.9212V27.5609Z" fill="#198D9B"/>
<path d="M14.4735 27.5609C14.4735 27.9199 14.1751 28.2136 13.8104 28.2136H13.6278C13.2631 28.2136 12.9644 27.9199 12.9644 27.5609V19.9212C12.9644 19.5623 13.2628 19.2686 13.6278 19.2686H13.8104C14.1751 19.2686 14.4735 19.5623 14.4735 19.9212V27.5609Z" fill="#198D9B"/>
<path d="M19.3307 27.5609C19.3307 27.9199 19.0323 28.2136 18.6676 28.2136H18.4847C18.12 28.2136 17.8215 27.9199 17.8215 27.5609V19.9212C17.8215 19.5623 18.12 19.2686 18.4847 19.2686H18.6676C19.0323 19.2686 19.3307 19.5623 19.3307 19.9212V27.5609Z" fill="#198D9B"/>
<path d="M24.1852 27.5609C24.1852 27.9199 23.8868 28.2136 23.5221 28.2136H23.3392C22.9745 28.2136 22.6758 27.9199 22.6758 27.5609V19.9212C22.6758 19.5623 22.9745 19.2686 23.3392 19.2686H23.5218C23.8865 19.2686 24.1849 19.5623 24.1849 19.9212V27.5609H24.1852Z" fill="#198D9B"/>
<path d="M7.07566 9.5983C7.70494 5.28501 11.4639 1.96684 16.0199 1.96684C20.5761 1.96684 24.3353 5.28529 24.9646 9.5983C25.0564 11.071 26.9839 10.8354 26.9839 9.5983C26.3423 4.1952 21.6823 0 16.0201 0C10.3583 0 5.69795 4.1952 5.05664 9.5983C5.05636 11.1302 7.10027 11.1891 7.07566 9.5983Z" fill="#198D9B"/>
</svg>
