<svg width="21" height="23" viewBox="0 0 21 23" fill="none" xmlns="http://www.w3.org/2000/svg">
<path d="M16.504 22.0028H4.72397C3.61502 22.0028 2.7131 21.1009 2.7131 19.9927L1.04453 12.1588C0.414068 11.8462 0 11.2086 0 10.4967C0 9.45617 0.846306 8.6106 1.88606 8.6106H19.1139C20.1537 8.6106 21 9.45617 21 10.4967C21 11.1055 20.7062 11.6629 20.2148 12.0138L18.5011 20.1201C18.5149 21.1009 17.6129 22.0028 16.504 22.0028ZM1.88606 9.84748C1.52853 9.84748 1.23706 10.1389 1.23706 10.4965C1.23706 10.7784 1.44079 11.028 1.73318 11.1022C1.96113 11.1602 2.13586 11.3437 2.18413 11.574L3.9364 19.8655C3.95016 20.4194 4.29724 20.7658 4.72397 20.7658H16.504C16.9307 20.7658 17.278 20.4194 17.278 19.9927L19.0602 11.4968C19.0989 11.3099 19.222 11.1521 19.392 11.0684C19.6207 10.9573 19.7633 10.7365 19.7633 10.4967C19.7633 10.1391 19.4718 9.84766 19.1141 9.84766H1.88606V9.84748Z" fill="#121011"/>
<path d="M6.31247 18.3764C6.31247 18.6157 6.11663 18.8116 5.87729 18.8116H5.75744C5.5181 18.8116 5.32227 18.6157 5.32227 18.3764V13.2826C5.32227 13.0432 5.5181 12.8474 5.75744 12.8474H5.87729C6.11663 12.8474 6.31247 13.0432 6.31247 13.2826V18.3764Z" fill="#121011"/>
<path d="M9.4982 18.3764C9.4982 18.6157 9.30236 18.8116 9.06302 18.8116H8.94317C8.70383 18.8116 8.50781 18.6157 8.50781 18.3764V13.2826C8.50781 13.0432 8.70365 12.8474 8.94317 12.8474H9.06302C9.30236 12.8474 9.4982 13.0432 9.4982 13.2826V18.3764Z" fill="#121011"/>
<path d="M12.6857 18.3764C12.6857 18.6157 12.4899 18.8116 12.2505 18.8116H12.1305C11.8912 18.8116 11.6953 18.6157 11.6953 18.3764V13.2826C11.6953 13.0432 11.8912 12.8474 12.1305 12.8474H12.2505C12.4899 12.8474 12.6857 13.0432 12.6857 13.2826V18.3764Z" fill="#121011"/>
<path d="M15.8714 18.3764C15.8714 18.6157 15.6756 18.8116 15.4363 18.8116H15.3162C15.0769 18.8116 14.8809 18.6157 14.8809 18.3764V13.2826C14.8809 13.0432 15.0769 12.8474 15.3162 12.8474H15.4361C15.6754 12.8474 15.8712 13.0432 15.8712 13.2826V18.3764H15.8714Z" fill="#121011"/>
<path d="M4.64334 6.3997C5.05631 3.5238 7.5231 1.3114 10.513 1.3114C13.503 1.3114 15.97 3.52398 16.383 6.3997C16.4432 7.38164 17.7081 7.22453 17.7081 6.3997C17.2871 2.79716 14.2289 0 10.5132 0C6.79756 0 3.73922 2.79716 3.31836 6.3997C3.31818 7.4211 4.65949 7.46038 4.64334 6.3997Z" fill="#121011"/>
</svg>
